{
  "accessors": [
    {
      "bufferView": 2,
      "componentType": 5126,
      "count": 15102,
      "max": [
        7.54759407043457,
        15.948169708251953,
        2.439899444580078
      ],
      "min": [
        -7.357478141784668,
        1.8575657606124878,
        -6.578794956207275
      ],
      "type": "VEC3"
    },
    {
      "bufferView": 2,
      "byteOffset": 181224,
      "componentType": 5126,
      "count": 15102,
      "max": [
        0.9998341798782349,
        0.9999470114707947,
        0.9998900890350342
      ],
      "min": [
        -0.9999756813049316,
        -0.9996140599250793,
        -0.9998035430908203
      ],
      "type": "VEC3"
    },
    {
      "bufferView": 3,
      "componentType": 5126,
      "count": 15102,
      "max": [
        0.9999983906745911,
        0.9999666810035706,
        0.9999637603759766,
        1.0
      ],
      "min": [
        -0.9999991059303284,
        -0.9998772740364075,
        -0.9984990954399109,
        -1.0
      ],
      "type": "VEC4"
    },
    {
      "bufferView": 1,
      "componentType": 5126,
      "count": 15102,
      "max": [
        1.0,
        0.9949495196342468
      ],
      "min": [
        -0.5019758343696594,
        -0.12525725364685059
      ],
      "type": "VEC2"
    },
    {
      "bufferView": 0,
      "componentType": 5125,
      "count": 66096,
      "type": "SCALAR"
    },
    {
      "bufferView": 2,
      "byteOffset": 362448,
      "componentType": 5126,
      "count": 15102,
      "max": [
        21.47543716430664,
        15.948169708251953,
        -9.368582725524902
      ],
      "min": [
        5.589892387390137,
        1.8575658798217773,
        -22.420263290405273
      ],
      "type": "VEC3"
    },
    {
      "bufferView": 2,
      "byteOffset": 543672,
      "componentType": 5126,
      "count": 15102,
      "max": [
        0.9995990991592407,
        0.9999469518661499,
        0.9999552369117737
      ],
      "min": [
        -0.9991346001625061,
        -0.9996142387390137,
        -0.9998855590820313
      ],
      "type": "VEC3"
    },
    {
      "bufferView": 3,
      "byteOffset": 241632,
      "componentType": 5126,
      "count": 15102,
      "max": [
        0.9999955892562866,
        0.9999642968177795,
        0.9988362193107605,
        1.0
      ],
      "min": [
        -0.9999848008155823,
        -0.9998775720596313,
        -0.9997432231903076,
        -1.0
      ],
      "type": "VEC4"
    },
    {
      "bufferView": 1,
      "byteOffset": 120816,
      "componentType": 5126,
      "count": 15102,
      "max": [
        1.0,
        0.9949495196342468
      ],
      "min": [
        -0.5019758343696594,
        -0.12525725364685059
      ],
      "type": "VEC2"
    },
    {
      "bufferView": 0,
      "byteOffset": 264384,
      "componentType": 5125,
      "count": 66096,
      "type": "SCALAR"
    },
    {
      "bufferView": 2,
      "byteOffset": 724896,
      "componentType": 5126,
      "count": 4229,
      "max": [
        17.082073211669922,
        19.474689483642578,
        1.0249440670013428
      ],
      "min": [
        -15.938937187194824,
        -1.8587961196899414,
        -10.259064674377441
      ],
      "type": "VEC3"
    },
    {
      "bufferView": 2,
      "byteOffset": 775644,
      "componentType": 5126,
      "count": 4229,
      "max": [
        0.9999547600746155,
        0.9996410608291626,
        0.9999985098838806
      ],
      "min": [
        -0.9988734722137451,
        -0.9999540448188782,
        -0.9999315738677979
      ],
      "type": "VEC3"
    },
    {
      "bufferView": 3,
      "byteOffset": 483264,
      "componentType": 5126,
      "count": 4229,
      "max": [
        0.9999992251396179,
        0.9959991574287415,
        0.9996495246887207,
        1.0
      ],
      "min": [
        -1.0,
        -0.9999895095825195,
        -0.999751627445221,
        -1.0
      ],
      "type": "VEC4"
    },
    {
      "bufferView": 1,
      "byteOffset": 241632,
      "componentType": 5126,
      "count": 4229,
      "max": [
        0.9655517935752869,
        0.9391723275184631
      ],
      "min": [
        0.012616491876542568,
        0.0500335693359375
      ],
      "type": "VEC2"
    },
    {
      "bufferView": 0,
      "byteOffset": 528768,
      "componentType": 5125,
      "count": 22176,
      "type": "SCALAR"
    },
    {
      "bufferView": 2,
      "byteOffset": 826392,
      "componentType": 5126,
      "count": 4229,
      "max": [
        28.17620849609375,
        19.474689483642578,
        -8.732390403747559
      ],
      "min": [
        -1.4794368743896484,
        -1.8587958812713623,
        -28.54290008544922
      ],
      "type": "VEC3"
    },
    {
      "bufferView": 2,
      "byteOffset": 877140,
      "componentType": 5126,
      "count": 4229,
      "max": [
        0.9999992251396179,
        0.9996410608291626,
        0.9999610781669617
      ],
      "min": [
        -0.9998071789741516,
        -0.999954104423523,
        -0.9986682534217834
      ],
      "type": "VEC3"
    },
    {
      "bufferView": 3,
      "byteOffset": 550928,
      "componentType": 5126,
      "count": 4229,
      "max": [
        0.9999850392341614,
        0.9961733222007751,
        0.9999368190765381,
        1.0
      ],
      "min": [
        -0.9999870657920837,
        -0.9999895095825195,
        -0.9894291758537292,
        -1.0
      ],
      "type": "VEC4"
    },
    {
      "bufferView": 1,
      "byteOffset": 275464,
      "componentType": 5126,
      "count": 4229,
      "max": [
        0.9655517935752869,
        0.9391723275184631
      ],
      "min": [
        0.012616491876542568,
        0.0500335693359375
      ],
      "type": "VEC2"
    },
    {
      "bufferView": 0,
      "byteOffset": 617472,
      "componentType": 5125,
      "count": 22176,
      "type": "SCALAR"
    }
  ],
  "asset": {
    "extras": {
      "author": "theunclerulez (https://sketchfab.com/f.zimbaldi)",
      "license": "CC-BY-4.0 (http://creativecommons.org/licenses/by/4.0/)",
      "source": "https://sketchfab.com/3d-models/generic-converse-style-sneakers-f7858a5612504c4193ca4c61125d6244",
      "title": "Generic \"Converse style\" Sneakers"
    },
    "generator": "Sketchfab-12.68.0",
    "version": "2.0"
  },
  "bufferViews": [
    {
      "buffer": 0,
      "byteLength": 706176,
      "name": "floatBufferViews",
      "target": 34963
    },
    {
      "buffer": 0,
      "byteLength": 309296,
      "byteOffset": 706176,
      "byteStride": 8,
      "name": "floatBufferViews",
      "target": 34962
    },
    {
      "buffer": 0,
      "byteLength": 927888,
      "byteOffset": 1015472,
      "byteStride": 12,
      "name": "floatBufferViews",
      "target": 34962
    },
    {
      "buffer": 0,
      "byteLength": 618592,
      "byteOffset": 1943360,
      "byteStride": 16,
      "name": "floatBufferViews",
      "target": 34962
    }
  ],
  "buffers": [
    {
      "byteLength": 2561952,
      "uri": "scene.bin"
    }
  ],
  "images": [
    {
      "uri": "./Nuovo_baseColor.png"
    },
    {
      "uri": "./Nuovo_metallicRoughness.png"
    },
    {
      "uri": "./Nuovo_normal.png"
    },
    {
      "uri": "./Nuovo.1_baseColor.png"
    },
    {
      "uri": "./Nuovo.1_metallicRoughness.png"
    },
    {
      "uri": "./Nuovo.1_normal.png"
    }
  ],
  "materials": [
    {
      "doubleSided": true,
      "name": "Nuovo",
      "normalTexture": {
        "index": 2
      },
      "pbrMetallicRoughness": {
        "baseColorTexture": {
          "index": 0
        },
        "metallicRoughnessTexture": {
          "index": 1
        }
      }
    },
    {
      "doubleSided": true,
      "name": "Nuovo.1",
      "normalTexture": {
        "index": 5
      },
      "pbrMetallicRoughness": {
        "baseColorTexture": {
          "index": 3
        },
        "metallicRoughnessTexture": {
          "index": 4
        }
      }
    }
  ],
  "meshes": [
    {
      "name": "Sweep_Nuovo_0",
      "primitives": [
        {
          "attributes": {
            "NORMAL": 1,
            "POSITION": 0,
            "TANGENT": 2,
            "TEXCOORD_0": 3
          },
          "indices": 4,
          "material": 0,
          "mode": 4
        }
      ]
    },
    {
      "name": "Sweep_1_Nuovo_0",
      "primitives": [
        {
          "attributes": {
            "NORMAL": 6,
            "POSITION": 5,
            "TANGENT": 7,
            "TEXCOORD_0": 8
          },
          "indices": 9,
          "material": 0,
          "mode": 4
        }
      ]
    },
    {
      "name": "CONVERSE_Nuovo.1_0",
      "primitives": [
        {
          "attributes": {
            "NORMAL": 11,
            "POSITION": 10,
            "TANGENT": 12,
            "TEXCOORD_0": 13
          },
          "indices": 14,
          "material": 1,
          "mode": 4
        }
      ]
    },
    {
      "name": "CONVERSE_1_Nuovo.1_0",
      "primitives": [
        {
          "attributes": {
            "NORMAL": 16,
            "POSITION": 15,
            "TANGENT": 17,
            "TEXCOORD_0": 18
          },
          "indices": 19,
          "material": 1,
          "mode": 4
        }
      ]
    }
  ],
  "nodes": [
    {
      "children": [
        1
      ],
      "matrix": [
        0.007931715808808804,
        0.0,
        0.0,
        0.0,
        0.0,
        1.761194703144576e-18,
        -0.007931715808808804,
        0.0,
        0.0,
        0.007931715808808804,
        1.761194703144576e-18,
        0.0,
        0.0,
        0.0,
        0.0,
        1.0
      ],
      "name": "Sketchfab_model"
    },
    {
      "children": [
        2
      ],
      "matrix": [
        1.0,
        0.0,
        0.0,
        0.0,
        0.0,
        0.0,
        1.0,
        0.0,
        0.0,
        -1.0,
        0.0,
        0.0,
        0.0,
        0.0,
        0.0,
        1.0
      ],
      "name": "bdc0e10474154c97a46e021775307b6a.fbx"
    },
    {
      "children": [
        3
      ],
      "name": "RootNode"
    },
    {
      "children": [
        4
      ],
      "matrix": [
        0.9999999999999999,
        -1.4901161193847656e-08,
        2.220446049250313e-16,
        0.0,
        1.4901161193847656e-08,
        0.9999999999999999,
        3.308722450212111e-24,
        0.0,
        -2.220446049250313e-16,
        1.8367099231598242e-40,
        1.0,
        0.0,
        0.0,
        0.0,
        -8.881784197001252e-16,
        1.0
      ],
      "name": "Superficie_di_Suddivisione"
    },
    {
      "children": [
        5
      ],
      "matrix": [
        0.9658675317845514,
        2.1073423894790728e-08,
        -0.2590365052351079,
        0.0,
        -2.1354002421999214e-08,
        0.9999999999999998,
        1.7305911432295326e-09,
        0.0,
        0.2590365052351079,
        3.859944364137392e-09,
        0.9658675317845516,
        0.0,
        -0.5600623488426208,
        -8.34557933870883e-09,
        7.876706600189209,
        1.0
      ],
      "name": "Simmetria"
    },
    {
      "children": [
        6,
        8,
        10,
        12
      ],
      "matrix": [
        0.9658675317845515,
        -1.4901160111300267e-08,
        0.25903650523510807,
        -0.0,
        1.4392546693712074e-08,
        1.0,
        3.859944602183284e-09,
        -0.0,
        0.25903650523510807,
        1.6876358597836595e-16,
        -0.9658675317845516,
        -0.0,
        3.1883561611175537,
        -0.6958537101745605,
        -11.544437408447266,
        1.0
      ],
      "name": "Nullo"
    },
    {
      "children": [
        7
      ],
      "matrix": [
        1.0,
        -9.81891412829198e-25,
        0.0,
        0.0,
        9.81891412829198e-25,
        1.0,
        2.449293593500953e-16,
        0.0,
        -2.4049403469561542e-40,
        -2.449293593500953e-16,
        1.0,
        0.0,
        -0.08296571671962738,
        -0.11959627270698547,
        -1.2791640758514404,
        1.0
      ],
      "name": "Sweep"
    },
    {
      "mesh": 0,
      "name": "Sweep_Nuovo_0"
    },
    {
      "children": [
        9
      ],
      "matrix": [
        1.0,
        -9.81891412829198e-25,
        0.0,
        0.0,
        9.81891412829198e-25,
        1.0,
        2.449293593500953e-16,
        0.0,
        -2.4049403469561542e-40,
        -2.449293593500953e-16,
        1.0,
        0.0,
        -0.08296571671962738,
        -0.11959627270698547,
        -1.2791640758514404,
        1.0
      ],
      "name": "Sweep_1"
    },
    {
      "mesh": 1,
      "name": "Sweep_1_Nuovo_0"
    },
    {
      "children": [
        11
      ],
      "matrix": [
        1.0,
        -9.81891412829198e-25,
        0.0,
        0.0,
        9.81891412829198e-25,
        1.0,
        2.449293593500953e-16,
        0.0,
        -2.4049403469561542e-40,
        -2.449293593500953e-16,
        1.0,
        0.0,
        0.08296571671962738,
        0.11959627270698547,
        1.2791640758514404,
        1.0
      ],
      "name": "CONVERSE"
    },
    {
      "mesh": 2,
      "name": "CONVERSE_Nuovo.1_0"
    },
    {
      "children": [
        13
      ],
      "matrix": [
        1.0,
        -9.81891412829198e-25,
        0.0,
        0.0,
        9.81891412829198e-25,
        1.0,
        2.449293593500953e-16,
        0.0,
        -2.4049403469561542e-40,
        -2.449293593500953e-16,
        1.0,
        0.0,
        0.08296571671962738,
        0.11959627270698547,
        1.2791640758514404,
        1.0
      ],
      "name": "CONVERSE_1"
    },
    {
      "mesh": 3,
      "name": "CONVERSE_1_Nuovo.1_0"
    }
  ],
  "samplers": [
    {
      "magFilter": 9729,
      "minFilter": 9987,
      "wrapS": 10497,
      "wrapT": 10497
    }
  ],
  "scene": 0,
  "scenes": [
    {
      "name": "Sketchfab_Scene",
      "nodes": [
        0
      ]
    }
  ],
  "textures": [
    {
      "sampler": 0,
      "source": 0
    },
    {
      "sampler": 0,
      "source": 1
    },
    {
      "sampler": 0,
      "source": 2
    },
    {
      "sampler": 0,
      "source": 3
    },
    {
      "sampler": 0,
      "source": 4
    },
    {
      "sampler": 0,
      "source": 5
    }
  ]
}
