<svg version="1.2" xmlns="http://www.w3.org/2000/svg" viewBox="0 0 25 26" width="25" height="26">
	<title>info-icon-svg</title>
	<style>
		.s0 { fill: none;stroke: #000000;stroke-linecap: round;stroke-linejoin: round;stroke-width: 1.5 } 
		.s1 { fill: none } 
		.s2 { fill: #000000 } 
	</style>
	<path id="Layer" fill-rule="evenodd" class="s0" d="m5.5 12v2c0 3.3 2.7 6 6 6h2c3.3 0 6-2.7 6-6v-2c0-3.3-2.7-6-6-6h-2c-3.3 0-6 2.7-6 6z"/>
	<path id="Forma 1" class="s1" d="m12 17h1v-4h-1z"/>
	<path id="Capa 3" class="s2" d="m12 18v-1h1v1z"/>
	<path id="Forma 4" class="s2" d="m12 8h1v-1h-1z"/>
	<path id="Forma 2" class="s2" d="m12 9v-2h-1-2-2v1h-1v2 6l3 3h2l1 1h2v-1h2l2-3h1v-6l-3-3h-2-1v2 4 4 1h-1v-4z"/>
	<path id="Forma 3" class="s2" d="m11 6v-1h3v1 1h-3z"/>
	<path id="Capa 1" class="s2" d="m16 19v-1-2h2v2l-2 2h-1-1v1h-3v-1h-2l-3-3h3l2 2z"/>
	<path id="Capa 4" class="s2" d="m12 10h1v2h-1z"/>
	<path id="Capa 2" class="s2" d="m17 9v-1h1v1z"/>
</svg>