<svg width="1440" height="1227" viewBox="0 0 1440 1227" fill="none" xmlns="http://www.w3.org/2000/svg">
<mask id="mask0_23_15" style="mask-type:alpha" maskUnits="userSpaceOnUse" x="-478" y="-404" width="2446" height="1631">
<path d="M1967.16 88.8726L-222.264 -403.359L-478 734.14L1711.42 1226.37L1967.16 88.8726Z" fill="#D7D3FF"/>
</mask>
<g mask="url(#mask0_23_15)">
<path d="M-466.575 402.296C-447.082 371.618 -354.533 376.596 -291.589 402.39C-228.645 428.185 -189.872 467.318 -155.383 504.049C-120.894 540.779 -84.8414 579.497 -24.2569 607.443C74.0936 652.775 198.727 653.323 299.907 644.346C401.087 635.37 506.8 621.133 619.449 647.571C705.225 667.771 785.281 709.84 871.55 718.312C939.882 724.91 994.595 707.448 1030.04 683.301C1065.49 659.153 1083.85 628.155 1110.57 600.477C1236.38 470.01 1551.75 417.286 1876.36 472.474" stroke="#FFB100" stroke-opacity="0.1" stroke-width="7.535" stroke-miterlimit="10"/>
<path d="M-403.013 251.541C-357.667 218.855 -230.499 247.906 -165.111 291.578C-99.724 335.25 -73.7741 386.732 -30.3864 434.987C13.0013 483.242 92.4635 535.842 183.076 544.456C275.787 552.851 328.353 510.491 347.871 467.157C367.389 423.823 372.42 373.389 431.915 346.497C491.409 319.604 587.089 323.21 678.754 338.362C770.419 353.514 860.499 379.223 951.793 398.134C1217.23 452.431 1605.48 403.698 1780.46 331.608" stroke="#FFB100" stroke-opacity="0.1" stroke-width="7.535" stroke-miterlimit="10"/>
<path d="M-381.946 127.046C-287.882 57.5492 -69.7107 64.4493 122.516 105.022C314.743 145.596 497.579 213.517 688.43 259.522C1149.65 370.769 1639.61 335.664 1881.14 174.081" stroke="#FFB100" stroke-opacity="0.1" stroke-width="7.535" stroke-miterlimit="10"/>
<path d="M-446.372 571.969C-395.125 554.726 -307.511 572.008 -245.025 600.854C-182.538 629.699 -137.681 667.643 -91.6372 703.739C-45.5934 739.835 7.04222 776.809 76.2351 799.16C173.928 830.636 278.178 824.706 363.18 810.371C448.181 796.036 529.236 774.547 628.584 779.443C733.756 784.516 843.688 818.517 944.702 855.119C1045.72 891.721 1145.14 932.647 1252.57 956.497C1341.8 975.576 1431.46 981.988 1511.43 975.01C1591.41 968.033 1658.53 947.944 1705.22 917.007L1675.23 913.134" stroke="#FFB100" stroke-opacity="0.1" stroke-width="7.535" stroke-miterlimit="10"/>
<path d="M-256.309 -285.565C-271.645 -259.096 -272.069 -228.6 -257.542 -196.972C-243.015 -165.344 -214.019 -133.633 -173.305 -104.848C-131.694 -76.4093 -79.9954 -51.9986 -23.1027 -33.927C33.7901 -15.8553 93.9947 -4.72051 151.812 -1.57663C205.464 1.05501 255.161 -3.46462 306.861 -3.83692C358.562 -4.20922 416.858 0.447382 468.754 18.4521C544.718 44.8857 587.232 91.5625 642.45 130.533C741.366 200.604 893.71 250.245 1037.57 266.82C1181.43 283.395 1315.28 268.899 1417.97 234.875C1520.66 200.851 1593.97 148.375 1646.13 88.8827" stroke="#FFB100" stroke-opacity="0.1" stroke-width="7.535" stroke-miterlimit="10"/>
<path d="M95.2428 -217.045C55.3529 -216.775 43.8734 -189.748 66.2533 -167.754C88.6333 -145.761 132.809 -130.074 174.786 -121.091C216.764 -112.108 259.025 -109.194 301.277 -102.118C408.817 -84.6803 511.447 -44.7203 606.62 -3.18058C701.794 38.3591 795.161 83.1274 899.246 114.555C1003.33 145.982 1123.27 162.498 1205.83 141.379C1250.56 128.7 1279.85 106.034 1288.56 77.3688C1297.26 48.7033 1284.82 15.8732 1253.41 -15.348" stroke="#FFB100" stroke-opacity="0.1" stroke-width="7.535" stroke-miterlimit="10"/>
</g>
</svg>
