<svg version="1.2" xmlns="http://www.w3.org/2000/svg" viewBox="0 0 512 512" width="512" height="512">
	<title>sneaker-icon-svg</title>
	<style>
		.s0 { fill: #000000 } 
	</style>
	<g id="Layer">
		<g id="Layer">
			<path id="Layer" fill-rule="evenodd" class="s0" d="m512 361.8c0 18.6-11.7 35.4-29.2 41.8-42.8 15.7-87.7 23.7-133.3 23.7h-288.8c-33.5 0-60.7-27.3-60.7-60.7 0-13.1 4.2-25.2 11.2-35.1l-0.1-98.7c-0.1-26.2 17.5-49.8 42.6-57.4l51.1-15.3c11.3-3.4 18.8-13.5 18.9-25.2 0.1-15.9 7.8-31 20.6-40.5 22.3-16.3 53.9-11.6 70.4 10.7 30.3 40.8 44.1 57.6 71.8 83.3 34.4 32 87.6 43.6 144 55.8q9.9 2.1 20 4.4c18.5 4.1 32.7 13.9 41.1 28.4 10.9 18.7 9.8 40.5 7.6 53.6 8.2 8.3 12.8 19.4 12.8 31.2zm-467.6-129l0.2 75.2c5.1-1.4 10.5-2.2 16.1-2.2h85.1c30 0 60.1 3.4 89.5 10.1l23 5.2c40.5 9.2 81.9 11.4 123.2 6.6l62.9-7.3c4.9-0.5 9.9-1.4 15.1-2.3l0.4-0.1q3.6-0.6 7.2-0.7c0.4-7.8-0.4-16.7-4.4-23.6-3.7-6.4-10.1-10.5-19.5-12.5q-9.9-2.2-19.7-4.4c-34-7.3-66.8-14.4-96.4-25.9l-30.5-14.2q-6.1-3.5-11.9-7.3l-26.1-21.3q-4.2-4-8-7.8l-23.1-24.7c-2.9-3.3-5.8-6.8-8.8-10.5l-20.9-26.8c-3.1-4.2-6.4-8.6-10-13.3-5.5-7.6-16.2-9.2-23.7-3.6-4.4 3.1-7 8.3-7 13.6-0.1 26.5-17.3 49.5-42.7 57.1l-51.1 15.3c-11.1 3.3-18.9 13.8-18.8 25.4zm434.1 129c0-4.5-2.5-7.2-3.9-8.5-2.6-2.1-5.9-3-9-2.4h-0.4c-5.5 1-11.2 2-17.1 2.7l-62.8 7.3c-45.1 5.2-90.3 2.8-134.5-7.3l-23-5.2c-26.9-6.1-54.6-9.2-82.1-9.2h-85.1c-15 0-27.3 12.3-27.3 27.4 0 15 12.3 27.3 27.3 27.3h288.8c41.7 0 82.7-7.3 121.8-21.7 4.4-1.6 7.3-5.7 7.3-10.4z"/>
		</g>
	</g>
</svg>